<?xml version="1.0" encoding="utf-8"?>
<!-- Generator: Adobe Illustrator 24.2.0, SVG Export Plug-In . SVG Version: 6.00 Build 0)  -->
<svg version="1.1" id="Layer_1" xmlns="http://www.w3.org/2000/svg" xmlns:xlink="http://www.w3.org/1999/xlink" x="0px" y="0px"
	 viewBox="0 0 1920 1080" style="enable-background:new 0 0 1920 1080;" xml:space="preserve">
<style type="text/css">
	.st0{fill:#7429C1;}
</style>
<g>
	
		<image style="overflow:visible;opacity:0.81;enable-background:new    ;" width="2082" height="1242" xlink:href="9F6F3708.png"  transform="matrix(1 0 0 1 -76 -64)">
	</image>
	<g>
		<path class="st0" d="M0.5,0.5h1919l-0.5,851.4c-91.2-21-180.9-31.6-266.6-31.6c-96.3,0-190.3,13.4-279.1,39.8
			c-99.2,29.5-159.9,65.4-213.4,97.1c-63.9,37.8-119.1,70.5-219.5,79.9c-16.3,1.5-32.4,2.3-48,2.3c-93.1,0-159.5-26.2-229.8-53.9
			c-70.8-27.9-143.9-56.8-247.1-56.8c-7.3,0-14.7,0.2-22.1,0.4c-133.7,5.2-265.9,55.6-393,150L0.5,0.5L0.5,0.5z"/>
		<path class="st0" d="M1919,1l-0.5,850.2c-91-20.9-180.5-31.5-266.1-31.5c-96.4,0-190.3,13.4-279.2,39.8
			c-99.3,29.5-160,65.5-213.5,97.2c-63.8,37.8-119,70.5-219.3,79.8c-16.2,1.5-32.4,2.3-47.9,2.3c-41.8,0-82.3-5.5-123.8-16.7
			c-37.2-10.1-72-23.8-105.8-37.1c-70.8-27.9-144-56.8-247.3-56.8c-7.3,0-14.8,0.2-22.2,0.4C259.9,933.7,127.9,984,1,1078V1H1919
			 M1920,0H0c0,360,0,720,0,1080c83.2-61.9,219.9-143.8,393.5-150.5c7.5-0.3,14.9-0.4,22.1-0.4c202.8,0,287.3,110.7,476.8,110.7
			c15.3,0,31.3-0.7,48-2.3c184.6-17.1,215.1-112.2,433-177c97.2-28.9,191.4-39.8,278.9-39.8c99.6,0,190.4,14.1,267.1,31.8
			C1919.7,568.3,1919.8,284.2,1920,0L1920,0z"/>
	</g>
</g>
</svg>
